<svg xmlns="http://www.w3.org/2000/svg" width="215.973" height="71.819" viewBox="0 0 215.973 71.819">
  <g id="Group_2" data-name="Group 2" transform="translate(1823.883 924.217)">
    <path id="Path_30" data-name="Path 30" d="M634.109-924.095c-.115.115-.115.115-.093,4.827.016,4.445.022,4.724.115,4.817a1.733,1.733,0,0,0,1.24-.011l.126-.109-.033-3.315c-.016-1.824-.011-3.331.011-3.342a7.564,7.564,0,0,1,.83.907c.432.513.912,1.087,1.07,1.267s.715.846,1.251,1.48c3.14,3.73,2.8,3.358,3.036,3.358a.436.436,0,0,0,.317-.109c.1-.1.109-.2.109-4.751,0-2.556-.011-4.7-.033-4.773-.044-.186-.24-.251-.726-.251-.36,0-.453.022-.579.12l-.153.12.033,3.238c.022,1.824.016,3.238-.011,3.238-.055,0-.573-.59-3.069-3.468l-2.124-2.452c-.284-.328-.573-.661-.645-.748A.467.467,0,0,0,634.109-924.095Z" transform="translate(-2323.665 0)" fill="#020203" fill-rule="evenodd"/>
    <path id="Path_31" data-name="Path 31" d="M921.3-923.928a3.319,3.319,0,0,0-1.081.426,2.552,2.552,0,0,0-.508,3.839,4.665,4.665,0,0,0,1.4.945,8.723,8.723,0,0,1,2.042,1.109,1.217,1.217,0,0,1-.257,2.119,1.371,1.371,0,0,1-.748.153,3.292,3.292,0,0,1-1.982-.754c-.388-.268-.4-.273-.546-.191a2.144,2.144,0,0,0-.612.907c0,.219.694.721,1.42,1.021a3.625,3.625,0,0,0,1.666.273,2.9,2.9,0,0,0,1.829-.421,2.532,2.532,0,0,0,1.087-3.2,4.593,4.593,0,0,0-2.67-2.026,5.129,5.129,0,0,1-1.4-.8,1.153,1.153,0,0,1-.42-.923,1.242,1.242,0,0,1,1.163-1.234,2.738,2.738,0,0,1,1.791.42c.4.207.622.289.71.268a1.852,1.852,0,0,0,.617-.912c0-.317-.814-.759-1.846-1A5.251,5.251,0,0,0,921.3-923.928Z" transform="translate(-2593.107 -0.221)" fill="#020203" fill-rule="evenodd"/>
    <path id="Path_32" data-name="Path 32" d="M-172.509-923.074c-.153.1-.18.158-1.021,2.261-.382.945-.726,1.791-.77,1.879a.762.762,0,0,0-.076.207,2.05,2.05,0,0,1-.1.279c-.06.126-.3.721-.541,1.322a6.052,6.052,0,0,1-.5,1.092c-.06,0-.109-.1-.967-2.212-.284-.7-.568-1.387-.623-1.513s-.175-.415-.262-.628a22.215,22.215,0,0,0-1.141-2.643c-.142-.109-.541-.1-.6.016a6.256,6.256,0,0,0-.169.781c-.066.377-.142.792-.175.928s-.082.453-.126.71c-.071.388-.246,1.371-.579,3.167-.033.164-.1.568-.164.9s-.137.721-.164.874c-.055.279-.295,1.573-.36,1.955-.055.333.005.366.721.366.748,0,.672.087.841-1.01.066-.42.2-1.283.306-1.911s.208-1.321.24-1.529.082-.508.109-.655.076-.475.115-.726c.087-.552.12-.53.4.235.191.519.8,2.064,1.125,2.851.038.087.082.2.1.262.519,1.332,1.016,2.528,1.081,2.578a.7.7,0,0,0,.524.038,7.886,7.886,0,0,0,.552-1.24c.262-.666.491-1.261.519-1.322s.175-.431.322-.819c.639-1.682,1.147-2.949,1.19-2.96.027-.011.268,1.305.535,2.916s.513,3.02.552,3.113l.071.18h.628c.786,0,.781.011.633-.743-.1-.5-.2-1.054-.5-2.67-.06-.333-.131-.71-.158-.847s-.071-.393-.1-.573c-.093-.508-.208-1.147-.328-1.775-.06-.317-.158-.868-.224-1.229s-.137-.754-.164-.874-.076-.377-.115-.573C-171.957-923.118-172.2-923.292-172.509-923.074Z" transform="translate(-1553.291 -0.994)" fill="#020203" fill-rule="evenodd"/>
    <path id="Path_33" data-name="Path 33" d="M319.773-922.762a4.963,4.963,0,0,0-3.713,2.823,5.021,5.021,0,0,0,1.081,5.723,4.787,4.787,0,0,0,2.578,1.283,5.256,5.256,0,0,0,2.266-.12,7.186,7.186,0,0,0,1.42-.677,5.04,5.04,0,0,0,2.048-3.135,7.937,7.937,0,0,0,0-1.971,5.1,5.1,0,0,0-1.251-2.386,4.8,4.8,0,0,0-2.081-1.349c-.137-.038-.317-.1-.41-.126A11.811,11.811,0,0,0,319.773-922.762Zm1.851,1.535a3.66,3.66,0,0,1,2.359,2.392,2.676,2.676,0,0,1,.131,1.01,2.676,2.676,0,0,1-.131,1.01,3.654,3.654,0,0,1-2.283,2.359,2.585,2.585,0,0,1-1.109.153,3,3,0,0,1-1.065-.12,3.774,3.774,0,0,1-2.228-1.988,3.844,3.844,0,0,1-.18-2.288,3.7,3.7,0,0,1,2.206-2.468A3.385,3.385,0,0,1,321.625-921.228Z" transform="translate(-2022.648 -1.36)" fill="#020203" fill-rule="evenodd"/>
    <path id="Path_34" data-name="Path 34" d="M-722.316-921.718a5.031,5.031,0,0,0-4.019,3.659,6.622,6.622,0,0,0-.033,2.43,4.982,4.982,0,0,0,2.6,3.271,5.009,5.009,0,0,0,4.292.115c.568-.246,1.442-.923,1.442-1.114a2.957,2.957,0,0,0-.825-.868c-.066-.016-.229.055-.453.213a3.33,3.33,0,0,1-2.326.721,2.555,2.555,0,0,1-1.065-.2,3.6,3.6,0,0,1-2.124-2.446,4.73,4.73,0,0,1-.005-1.753,3.668,3.668,0,0,1,2.567-2.61,3.66,3.66,0,0,1,2.911.65,1.368,1.368,0,0,0,.437.251,3.59,3.59,0,0,0,.885-.863c0-.18-.71-.743-1.338-1.059A5.11,5.11,0,0,0-722.316-921.718Z" transform="translate(-1037.488 -2.3)" fill="#020203" fill-rule="evenodd"/>
    <path id="Path_35" data-name="Path 35" d="M-456.659-921.85a.954.954,0,0,0-.224.339c-.06.136-.213.464-.339.737s-.278.6-.339.737-.18.4-.268.59-.158.355-.158.366-.093.224-.213.475-.4.868-.633,1.382-.519,1.136-.633,1.382-.213.464-.213.475-.071.175-.158.366a23.839,23.839,0,0,0-1.152,2.643.24.24,0,0,0,.1.186,2.968,2.968,0,0,0,1.223-.016,8.871,8.871,0,0,0,.775-1.584l.2-.475,2.244.011,2.244.016.235.519c.606,1.349.672,1.474.814,1.529a2.361,2.361,0,0,0,1.163-.033c.158-.115.142-.224-.147-.841-.12-.257-.4-.885-.639-1.393s-.508-1.109-.606-1.327-.186-.41-.186-.42-.109-.246-.24-.53c-.279-.6-.35-.748-1.032-2.255a16.328,16.328,0,0,0-1.393-2.9A.333.333,0,0,0-456.659-921.85Zm.53,3.315c.131.3.317.726.415.945s.186.4.186.415.115.262.251.557.306.661.377.814a.793.793,0,0,1,.1.311,30.114,30.114,0,0,1-3.293-.005c0-.044.208-.519.639-1.48.066-.137.191-.431.289-.655s.24-.546.311-.71.175-.388.224-.491c.109-.251.186-.344.229-.289C-456.385-919.1-456.26-918.836-456.129-918.536Z" transform="translate(-1288.467 -2.151)" fill="#020203" fill-rule="evenodd"/>
    <path id="Path_36" data-name="Path 36" d="M152.077-920.008c-.049.049-.066,1.18-.066,4.74,0,4.461.005,4.685.1,4.767a2.022,2.022,0,0,0,1.283-.005c.087-.093.093-.5.093-4.745,0-4.429-.005-4.647-.1-4.729s-.218-.093-.672-.093A1.556,1.556,0,0,0,152.077-920.008Z" transform="translate(-1867.992 -3.918)" fill="#020203" fill-rule="evenodd"/>
    <path id="Path_37" data-name="Path 37" d="M1229.9-873.609a3.936,3.936,0,0,0-.923.716,3.711,3.711,0,0,0-.317.508c-.142.273-.153.339-.153.95s.011.677.153.95a3.716,3.716,0,0,0,.317.508,3.638,3.638,0,0,0,.939.715,17.812,17.812,0,0,0,2.059-.1c.164-.016,1.136-.087,2.157-.164,5.75-.426,7.023-.519,8.055-.606.2-.016.513-.038.71-.055s.661-.049,1.038-.076c.688-.055,2.671-.2,4.778-.355.634-.049,1.42-.109,1.747-.137s.972-.076,1.42-.109,1.125-.082,1.5-.109c1.1-.093,4.893-.377,5.51-.415.541-.033,1.016-.115.737-.126l-1.229-.087c-.612-.049-1.469-.109-1.906-.142s-1.087-.076-1.447-.1-1.021-.071-1.474-.1-1.469-.1-2.266-.164-1.84-.136-2.321-.169c-.732-.044-2.7-.186-4.177-.3-.2-.016-.541-.038-.765-.055s-.726-.055-1.12-.082l-1.5-.109c-.437-.033-1.431-.1-2.212-.164s-1.655-.12-1.939-.136-1.343-.093-2.348-.169-2.048-.147-2.321-.164-.748-.049-1.065-.076A10.322,10.322,0,0,0,1229.9-873.609Z" transform="translate(-2885.705 -47.832)" fill="#020203" fill-rule="evenodd"/>
    <path id="Path_38" data-name="Path 38" d="M-1463.507-870.8c-.044.011-.917.082-1.939.153-4.1.306-4.871.366-5.5.415s-1.245.1-2.905.218c-.388.027-.868.066-1.065.082-.415.033-3.058.235-3.659.273-.224.016-1.207.093-2.184.164s-2.13.164-2.567.2-1.076.076-1.42.1-.961.076-1.365.1-1.546.115-2.539.191-2,.153-2.239.169a18.862,18.862,0,0,0-1.982.191c-.043.022.2.055.546.076.606.038,1.278.082,2.8.191.863.065,1.027.076,3.031.224.8.06,1.84.136,2.321.164s1.524.1,2.321.164,1.633.12,1.857.137.568.044.765.06c.355.027,1.076.076,2.567.18l2.649.2c1.021.071,2.053.148,2.293.164s1.272.087,2.293.164,2.2.164,2.621.191c1.988.136,2.5.169,3,.213.53.049.557.044.814-.093a2.371,2.371,0,0,0,1.289-2.081,2.329,2.329,0,0,0-1.223-2.048C-1463.24-870.826-1463.316-870.848-1463.507-870.8Z" transform="translate(-312.926 -50.478)" fill="#020203" fill-rule="evenodd"/>
    <path id="Path_39" data-name="Path 39" d="M1304.868-609.879a13.9,13.9,0,0,0-2.457.486,13.844,13.844,0,0,0-1.474.579,10.475,10.475,0,0,0-5.647,7.028,9.551,9.551,0,0,0-.278,2.594,10.131,10.131,0,0,0,1.66,5.821,10.7,10.7,0,0,0,7.607,4.647,24.292,24.292,0,0,0,3.67.027c.939-.148,1.158-.186,1.562-.284a14.856,14.856,0,0,0,5.04-2.4l.5-.377v-4.614c0-2.534-.016-4.62-.038-4.631s-2.146-.011-4.713.011l-4.669.033-.016,2.059-.011,2.064h4.041v2.457l-.208.137a4.908,4.908,0,0,1-1.1.47,6.388,6.388,0,0,1-4.347-.251,5.289,5.289,0,0,1-3.086-3.987,9.723,9.723,0,0,1,0-2.321,5.56,5.56,0,0,1,3.828-4.347,9.7,9.7,0,0,1,2.922,0,7.41,7.41,0,0,1,2.583,1.223c.792.563.759.546.852.42.065-.093,1.977-2.4,2.932-3.539a2.355,2.355,0,0,0,.268-.366,7.124,7.124,0,0,0-1.267-.972,12.264,12.264,0,0,0-2.905-1.436,14.177,14.177,0,0,0-5.248-.535Z" transform="translate(-2948.574 -297.123)" fill="#020203" fill-rule="evenodd"/>
    <path id="Path_40" data-name="Path 40" d="M753.859-603.822a2.273,2.273,0,0,0-.109.273c0,.011-.06.147-.131.306s-.317.743-.552,1.3-.491,1.169-.573,1.365-.246.573-.355.846-.246.59-.3.71-.257.606-.459,1.081-.519,1.24-.715,1.7-.382.912-.415.994-.093.224-.131.317c-.076.164-.519,1.218-.885,2.1-.1.257-.235.563-.289.683s-.224.513-.371.874c-.743,1.786-.89,2.141-.939,2.239-.082.169-.874,2.059-.874,2.081a2.733,2.733,0,0,1-.109.257c-.082.18-.633,1.48-1.349,3.189a16.722,16.722,0,0,0,2.971.071h3l.481-1.218c.491-1.229.672-1.682.857-2.1a1.248,1.248,0,0,0,.1-.289c0-.038,1.322-.055,3.937-.055h3.932l.142.311c.076.175.257.622.41,1s.306.754.344.846.2.459.344.819l.273.655,3.042.016,3.042.011-.033-.131c-.016-.071-.18-.486-.366-.917l-.688-1.627c-.2-.464-.415-.978-.486-1.136s-.131-.3-.131-.311-.06-.153-.131-.311-.295-.683-.5-1.163c-.6-1.42-1.01-2.4-1.065-2.512-.027-.06-.235-.552-.464-1.092s-.448-1.059-.486-1.147-.24-.557-.442-1.038-.41-.972-.464-1.092-.191-.442-.3-.71-.262-.623-.333-.781-.131-.3-.131-.311-.06-.153-.131-.311-.224-.513-.333-.781-.246-.59-.3-.71-.257-.6-.453-1.065-.568-1.338-.819-1.939-.508-1.2-.557-1.327l-.093-.229h-5.51Zm3.025,7.077c.087.219.568,1.458,1.076,2.752s.923,2.375.923,2.414a11.171,11.171,0,0,1-2.212.066,9.48,9.48,0,0,1-2.212-.071c0-.038.475-1.272,1.054-2.741s1.076-2.72,1.092-2.774C756.66-597.252,756.72-597.176,756.884-596.745Z" transform="translate(-2428.883 -302.661)" fill="#020203" fill-rule="evenodd"/>
    <path id="Path_41" data-name="Path 41" d="M1826.613-602.588l-.5.022.033,10.2c.022,7.389.049,10.206.093,10.234.071.049,14.575.044,15.705-.005l.792-.033.016-2.392.011-2.386H1837.3c-5.155,0-5.466-.005-5.5-.1-.016-.049-.038-.77-.038-1.595v-1.5l4.86-.044c2.676-.022,4.893-.049,4.931-.066a10.727,10.727,0,0,0,.066-2.168c0-1.18-.022-2.179-.049-2.223a37.235,37.235,0,0,0-4.931-.055l-4.877.022-.016-1.5a13.68,13.68,0,0,1,.033-1.545c.022-.022,2.441-.044,5.374-.044a50.364,50.364,0,0,0,5.39-.076,17.755,17.755,0,0,0,.049-2.414l-.016-2.343h-7.727c-4.249-.005-7.951.005-8.23.011Z" transform="translate(-3450.671 -304.054)" fill="#020203" fill-rule="evenodd"/>
    <path id="Path_42" data-name="Path 42" d="M-766.606-601.975a.322.322,0,0,0-.093.137c0,.033-.885,2.152-.983,2.359-.027.06-.191.442-.36.846s-.4.956-.513,1.229-.333.8-.491,1.174-.328.781-.382.9-.213.5-.355.846-.289.7-.328.792c-.115.246-.9,2.113-.9,2.135s-.06.147-.131.306-.246.573-.388.917-.317.759-.388.917-.131.3-.131.311-.781,1.879-.874,2.075c-.027.06-.41.967-.852,2.021s-.956,2.277-1.147,2.73a4.093,4.093,0,0,0-.306.857c.027.027,1.371.038,2.993.033l2.943-.016.71-1.775c.393-.977.732-1.807.754-1.846a34.235,34.235,0,0,1,3.9-.065c2.124,0,3.888.022,3.916.044a9.384,9.384,0,0,1,.9,2.048c.306.748.579,1.4.606,1.464.055.1.158.1,3.085.1,1.89,0,3.031-.022,3.031-.055s-.109-.3-.24-.612-.59-1.387-1.016-2.392c-.841-1.988-.874-2.064-1-2.348-.257-.6-1.349-3.178-1.349-3.2s-.071-.18-.164-.377-.164-.371-.164-.382-.06-.153-.131-.311-.295-.683-.5-1.163c-.8-1.889-1.016-2.408-1.065-2.512-.027-.06-.24-.552-.464-1.092s-.437-1.032-.464-1.092-.235-.552-.464-1.092-.448-1.059-.492-1.147-.164-.388-.273-.655-.262-.622-.333-.781-.131-.3-.131-.311-.06-.153-.131-.311-.169-.388-.218-.508a.744.744,0,0,0-.158-.257c-.038-.022-1.262-.044-2.72-.044C-766.366-602.073-766.524-602.068-766.606-601.975Zm3.151,7.809c.524,1.365.961,2.468,1.049,2.67a.916.916,0,0,1,.076.208.921.921,0,0,0,.076.208,10.347,10.347,0,0,1,.557,1.545,8.322,8.322,0,0,1-2.212.076c-1.2,0-2.2-.016-2.206-.044s.448-1.245,1.032-2.714c1.2-3.036,1.152-2.922,1.207-2.922A6.692,6.692,0,0,1-763.455-594.166Z" transform="translate(-991.386 -304.552)" fill="#020203" fill-rule="evenodd"/>
    <path id="Path_43" data-name="Path 43" d="M-1815.195-599.863c-.027.055-.18.4-.339.781s-.459,1.087-.666,1.584-.41.972-.448,1.065-.191.448-.333.792-.3.726-.355.846-.284.672-.519,1.229-.464,1.109-.519,1.229-.213.5-.355.846-.3.726-.355.846-.219.513-.371.874-.437,1.049-.639,1.529-.464,1.092-.573,1.365-.35.825-.519,1.229c-.371.879-.628,1.485-1.01,2.4-.158.377-.328.781-.382.9s-.186.437-.3.71a22.872,22.872,0,0,1-.978,2.223c-.044.033-.033.06.022.1a6.236,6.236,0,0,0,1.338.027c.694-.016,2.021-.033,2.949-.033h1.693l.541-1.382c.584-1.469.7-1.758.846-2.059l.093-.191h7.853l.426,1.038c.235.568.453,1.1.486,1.174s.12.295.2.491.2.486.268.639l.131.289h3.031c1.955,0,3.031-.016,3.031-.055s-.142-.393-.322-.8-.486-1.147-.688-1.627c-.562-1.332-1.283-3.031-1.393-3.276-.054-.12-.262-.612-.464-1.092s-.426-1-.5-1.163-.131-.295-.131-.306c0-.027-.568-1.365-.89-2.108-.044-.1-.147-.35-.229-.546s-.191-.453-.246-.573c-.1-.224-.251-.584-.9-2.13-.2-.481-.41-.972-.464-1.092s-.2-.453-.317-.737c-.306-.726-1.147-2.719-1.245-2.949-.049-.1-.273-.633-.5-1.174l-.421-.983-2.741-.016C-1814.976-599.956-1815.151-599.95-1815.195-599.863Zm2.856,6.99a1.558,1.558,0,0,0,.109.317c.038.087.2.508.371.928,1.327,3.375,1.622,4.145,1.611,4.188s-4.407.071-4.451.027,2.2-5.608,2.255-5.608C-1812.4-593.02-1812.361-592.955-1812.339-592.873Z" transform="translate(0 -306.56)" fill="#020203" fill-rule="evenodd"/>
    <path id="Path_44" data-name="Path 44" d="M-213.515-600.04c-.016.016-.016,4.593-.005,10.168s.027,10.185.027,10.234c-.005.093.164.1,2.78.1h2.785v-5.57c0-3.064.016-5.57.044-5.565s.481.568,1.021,1.261c1.01,1.305,2.386,3.058,4.62,5.914.71.9,1.682,2.146,2.173,2.769l.885,1.136h5.019v-20.478h-5.625v5.352c0,2.943-.016,5.352-.038,5.352a7.226,7.226,0,0,1-.623-.754c-1.387-1.8-7.716-9.873-7.771-9.906C-208.295-600.078-213.466-600.089-213.515-600.04Z" transform="translate(-1522.414 -306.443)" fill="#020203" fill-rule="evenodd"/>
    <path id="Path_45" data-name="Path 45" d="M293.011-597.588v2.485h3.025a21.64,21.64,0,0,1,3.074.065c.022.038.055,3.522.071,7.744l.027,7.673h5.625l.016-7.744.011-7.738h2.971c1.633,0,3.009-.016,3.058-.033.076-.027.087-.3.087-2.485v-2.452H293.011Z" transform="translate(-2001.292 -306.443)" fill="#020203" fill-rule="evenodd"/>
    <path id="Path_46" data-name="Path 46" d="M-1290.2-598.04c-.016.016.273.781.65,1.7s1.1,2.736,1.627,4.025c1,2.479,1.037,2.583,1.152,2.84.038.087.24.606.459,1.147s.42,1.054.464,1.147.224.546.41,1.01.371.917.41,1.01.246.606.464,1.147.42,1.054.464,1.147.213.519.382.956.36.9.42,1.032.268.65.464,1.147.388.978.426,1.07.169.4.289.683l.219.519,2.638.016,2.643.011.186-.475c.1-.268.229-.579.284-.7s.42-1.032.814-2.021.737-1.857.765-1.928a2.689,2.689,0,0,0,.109-.257c.033-.076.077-.191.109-.262s.557-1.387,1.18-2.933c1.524-3.806,4.778-11.916,4.811-12a20.083,20.083,0,0,0-3.107-.065h-3.135l-.071.2c-.038.115-.126.366-.2.562s-.257.71-.41,1.147-.328.912-.382,1.065c-.164.442-.366,1-1.01,2.84-.169.481-.328.923-.355.983s-.071.18-.1.273c-.186.535-.907,2.556-.994,2.785-.055.147-.191.53-.3.846s-.245.7-.306.857c-.262.715-.317.874-.377,1.07-.055.169-.077.2-.142.142a.185.185,0,0,1-.077-.126c0-.033-.1-.317-.213-.633s-.4-1.1-.633-1.748-.519-1.447-.639-1.775-.279-.775-.355-.983c-.136-.388-.257-.726-.448-1.245-.06-.153-.224-.606-.36-.994s-.3-.836-.355-.983c-.109-.284-.546-1.507-.792-2.212-.082-.224-.164-.459-.191-.519s-.153-.4-.278-.765a7.034,7.034,0,0,0-.284-.726,23.3,23.3,0,0,0-3.178-.065C-1288.764-598.073-1290.184-598.057-1290.2-598.04Z" transform="translate(-504.538 -308.334)" fill="#020203" fill-rule="evenodd"/>
    <path id="Path_47" data-name="Path 47" d="M-1539.874,36.069a.522.522,0,0,0-.115.218c0,.06,2.654,6.2,3.124,7.23.06.137,1.081,2.468,2.266,5.188s2.3,5.281,2.49,5.7c.295.677.349.765.508.83a50.866,50.866,0,0,0,5.33.076c4.795,0,5.161-.005,5.341-.1s.251-.224,1.371-2.709c.65-1.442,1.2-2.654,1.229-2.7a18.791,18.791,0,0,1,1.245,2.578c.71,1.567,1.251,2.7,1.327,2.774l.137.126h5.319c5.248,0,5.319,0,5.428-.109.06-.06,1.261-2.752,2.67-5.98s3.238-7.427,4.068-9.322,1.507-3.517,1.507-3.593a.4.4,0,0,0-.109-.246c-.109-.109-.18-.109-4.571-.109-4.342,0-4.462.005-4.571.1-.065.06-1,2.146-2.081,4.642s-1.982,4.516-2.01,4.489-.382-.765-.8-1.649l-.77-1.606.131-.109a2.991,2.991,0,0,1,.257-.2c.136-.093.131-.093-.2-.093a.714.714,0,0,1-.393-.076c-.027-.033-.606-1.245-1.289-2.687s-1.289-2.665-1.349-2.72c-.109-.087-.377-.093-3.921-.093h-3.812l-.115.12c-.06.071-.677,1.316-1.371,2.774l-1.251,2.649-.349.027-.344.027.229.164c.131.087.235.186.235.218,0,.076-1.524,3.277-1.562,3.277-.016,0-.912-2.042-1.993-4.533-1.13-2.6-2.015-4.571-2.081-4.631-.1-.087-.4-.093-4.576-.093h-4.473Zm11.091,4.937c1.141,2.627,2.091,4.795,2.113,4.822a19.989,19.989,0,0,0,.923-1.829c.486-1.032.906-1.879.939-1.889a3.2,3.2,0,0,1,.819.584c0,.044-1.535,3.282-1.824,3.855l-.169.328h-1.354l-2.086-4.795c-1.147-2.643-2.119-4.822-2.162-4.849s-1.5-.049-3.287-.049a16.588,16.588,0,0,0-3.238.076c-.016.044.366.983.852,2.092,1.316,2.987,4.538,10.365,5.472,12.522.448,1.038.852,1.939.9,2l.076.126h4.555c4.265,0,4.554-.005,4.631-.1a6.885,6.885,0,0,0,.371-.748c.158-.36.366-.83.464-1.038s.535-1.2.983-2.184.846-1.835.89-1.873A1.549,1.549,0,0,1-1518.3,48c.426,0,.552.016.634.093.06.055.557,1.1,1.109,2.337s1.092,2.436,1.2,2.676.229.519.273.617a.493.493,0,0,0,.169.229c.12.066,9.054.071,9.152.011.038-.027.4-.8.8-1.737.906-2.1,4.6-10.54,5.707-13.062.453-1.032.814-1.895.8-1.928-.055-.082-6.427-.066-6.542.016-.049.038-1.01,2.184-2.141,4.767s-2.07,4.735-2.092,4.778c-.038.066-.191.087-.715.1l-.666.016-.524-1.081c-.759-1.573-1.5-3.145-1.48-3.162a7.349,7.349,0,0,1,.835-.568c.027,0,.448.841.923,1.862s.89,1.868.906,1.879.967-2.119,2.1-4.74,2.092-4.795,2.119-4.833a44.242,44.242,0,0,1,4.44-.066,29.193,29.193,0,0,1,4.391.076c0,.109-3.02,7.072-6.979,16.088l-1.141,2.594-5.275.016-5.275.011-.082-.12c-.038-.071-.65-1.4-1.349-2.96a17.352,17.352,0,0,0-1.327-2.747c-.027.044-.633,1.371-1.343,2.938l-1.289,2.862-5.275.016c-4.177.011-5.286-.005-5.33-.055-.049-.071-.775-1.709-3.626-8.235-2.894-6.608-4.516-10.392-4.489-10.436.016-.027,1.939-.044,4.423-.038l4.4.016,2.081,4.778Zm10.447-4.691c-.022.06-.093.279-.158.475l-.126.366-1.371.027c-.754.016-1.382.044-1.4.06s-.464.95-.994,2.075-.989,2.075-1.016,2.108a2.769,2.769,0,0,1-1.136.027c0-.06,2.326-4.969,2.43-5.128l.082-.126h3.719Zm5.062,2.534c.688,1.442,1.245,2.627,1.245,2.638s-.262.005-.584,0l-.59-.016-.983-2.092c-.546-1.152-1.027-2.119-1.07-2.146a10.917,10.917,0,0,0-1.392-.049h-1.322l-.142-.459c-.077-.251-.142-.475-.142-.491s.841-.027,1.868-.022l1.873.016Zm-4.248.508c.409,1.267.743,2.315.743,2.332s1.12.027,2.485.027,2.485.016,2.485.038-3.642,2.725-3.937,2.916a18.256,18.256,0,0,0,.557,1.911c.961,2.982.923,2.845.835,2.812-.038-.016-.934-.661-1.988-1.431a15.993,15.993,0,0,0-2-1.365c-.049.016-.939.661-1.988,1.425s-1.928,1.393-1.961,1.393-.044-.038-.005-.126c.077-.169,1.475-4.494,1.475-4.554,0-.027-.885-.7-1.966-1.491s-1.966-1.458-1.966-1.485,1.1-.044,2.457-.044h2.452l.606-1.873c.333-1.027.672-2.064.748-2.3.147-.459.18-.535.208-.508C-1518.271,37.041-1517.927,38.084-1517.523,39.356Z" transform="translate(-268.39 -907.712)" fill="#020203" fill-rule="evenodd"/>
    <path id="Path_48" data-name="Path 48" d="M-1223.281,91.033c-.016.044-.224.688-.464,1.442s-.48,1.48-.524,1.622l-.088.262h-1.769c-.972,0-1.769.016-1.764.038s.584.47,1.294.988,1.354.988,1.425,1.043l.126.1-.443,1.387c-.246.765-.5,1.529-.552,1.7-.066.2-.082.3-.038.273s.688-.491,1.447-1.043c1.316-.956,1.387-1,1.5-.923.065.044.71.513,1.431,1.038s1.316.95,1.322.945-.229-.77-.53-1.7c-.453-1.42-.53-1.693-.464-1.742l1.42-1.043c.732-.541,1.338-1,1.338-1.027s-.792-.038-1.764-.038h-1.764l-.541-1.682c-.29-.923-.541-1.687-.552-1.7S-1223.264,90.99-1223.281,91.033Z" transform="translate(-563.447 -959.755)" fill="#020203" fill-rule="evenodd"/>
    <path id="Path_49" data-name="Path 49" d="M697.945,45.062a1.84,1.84,0,0,0-.393.273,1.362,1.362,0,0,0,.513,2.3,1.34,1.34,0,0,0,1.3-.262,1.444,1.444,0,0,0,.366-1.6,1.658,1.658,0,0,0-.726-.71A1.89,1.89,0,0,0,697.945,45.062Zm1.125.295a1.167,1.167,0,0,1-.6,2.141,1.148,1.148,0,1,1,.6-2.141Z" transform="translate(-2383.323 -916.279)" fill="#020203" fill-rule="evenodd"/>
    <path id="Path_50" data-name="Path 50" d="M712.011,55.719v.792h.137c.131,0,.137-.016.137-.328s.005-.328.131-.328c.1,0,.18.071.339.328s.229.328.339.328c.147,0,.158.022-.191-.491-.126-.186-.126-.191-.016-.208a.542.542,0,0,0,.328-.4.5.5,0,0,0-.257-.426,1.876,1.876,0,0,0-.535-.06h-.41Zm.863-.508a.279.279,0,0,1,.065.18c0,.18-.109.246-.393.246h-.262v-.491h.262A.627.627,0,0,1,712.874,55.211Z" transform="translate(-2397.411 -925.674)" fill="#020203" fill-rule="evenodd"/>
    <path id="Path_51" data-name="Path 51" d="M-488.11,51.252c-.2.011-1.152.044-2.13.076-7.285.24-15.607.775-20.779,1.343-4.991.546-7.121,1.158-8.606,2.468a6.188,6.188,0,0,0-1.638,2.933,4.643,4.643,0,0,0-.126,1.42,4.623,4.623,0,0,0,.126,1.42,5.488,5.488,0,0,0,2.982,3.713c1.846.9,3.637,1.092,11.331,1.229,4.991.087,32.951.131,38.336.06,9.644-.126,11.533-.311,13.516-1.3a5.469,5.469,0,0,0,2.889-3.473,6.121,6.121,0,0,0-.262-4.063,5.856,5.856,0,0,0-3.965-3.369c-2.3-.732-7.552-1.332-16.41-1.884C-478.854,51.448-486.477,51.164-488.11,51.252Zm3.986.677c7.629.235,18.556.956,23.154,1.535,4.877.606,6.733,1.464,7.754,3.566A5.245,5.245,0,0,1-454,62.993c-1.207,1.289-2.993,1.884-6.291,2.092-2.736.175-5.117.2-25.475.2-18.239,0-24.094-.027-25.644-.109-.268-.016-.95-.055-1.524-.082a11.846,11.846,0,0,1-4.969-1.01,4.8,4.8,0,0,1-2.348-2.3,4.546,4.546,0,0,1-.5-2.037,5.179,5.179,0,0,1,2.075-4.522c1.988-1.371,5.161-1.879,16.5-2.632,5.925-.393,8.492-.519,13.516-.672C-487.433,51.874-485.735,51.88-484.124,51.929Z" transform="translate(-1231.366 -922.184)" fill="#020203" fill-rule="evenodd"/>
    <path id="Path_52" data-name="Path 52" d="M-412.466,83.1c-9.666.295-20.932,1.256-23.127,1.966a4.569,4.569,0,0,0-2.976,2.829,4.483,4.483,0,0,0,2.234,5.439,6.216,6.216,0,0,0,.825.328c1.038.268,3.593.437,8.847.584,3.413.1,32.569.1,36.1,0a65.771,65.771,0,0,0,8.617-.535,4.4,4.4,0,0,0,2.135-1.163,4.426,4.426,0,0,0,1.322-2.474,6.728,6.728,0,0,0-.055-1.671,4.545,4.545,0,0,0-3.528-3.451c-2.315-.59-11.408-1.387-19.905-1.747Q-407.846,82.957-412.466,83.1Zm-1.742,2.512c.481.066.672.147.836.355a.954.954,0,0,1-.147,1.109,1.47,1.47,0,0,1-.47.06c-.415,0-.541-.082-.491-.322.055-.257-.076-.289-1.152-.268-.868.016-.961.027-1.059.126a36.449,36.449,0,0,0-1.414,4.107c.027.235.2.289.972.289s1.016-.049,1.19-.229a4.135,4.135,0,0,0,.519-1.458c-.038-.06-.158-.093-.4-.1-.36-.016-.486-.076-.486-.224a1.058,1.058,0,0,1,.224-.6c.109-.12.137-.12,1.125-.109.863.016,1.021.027,1.07.1a15.275,15.275,0,0,1-1.136,3.025,1.492,1.492,0,0,1-.459.366l-.3.153H-417.2a5.964,5.964,0,0,1-1.611-.082.863.863,0,0,1-.579-.9,13.164,13.164,0,0,1,.775-2.507,24.863,24.863,0,0,1,.912-2.392c.311-.41.852-.535,2.354-.552a9.514,9.514,0,0,1,1.141.049Zm3.429-.005a.182.182,0,0,1,.142.169,11.687,11.687,0,0,1-.393,1.234c-.3.857-.377,1.141-.333,1.207s.18.093.868.1a3.006,3.006,0,0,0,.95-.055c.148-.076.186-.164.683-1.556a8.232,8.232,0,0,1,.41-1.01c.082-.1.169-.12.513-.137.453-.027.579.027.579.229,0,.06-.47,1.442-1.038,3.064A23.075,23.075,0,0,1-409.55,91.9a1.434,1.434,0,0,1-1.032.016c-.066-.076.087-.568.748-2.408a.193.193,0,0,0-.065-.153c-.076-.071-.224-.087-.874-.087a3.873,3.873,0,0,0-.923.066c-.153.066-.24.268-.721,1.655-.333.972-.371,1.01-.939,1.01-.311,0-.453-.022-.5-.076a14.02,14.02,0,0,1,.9-2.856c1.267-3.648,1.147-3.342,1.354-3.435A1.4,1.4,0,0,1-410.779,85.606Zm8.694.137c.06.076.049.147-.038.377-.186.47-.229.491-.945.513-.557.016-.633.033-.732.137-.065.071-.464,1.158-.945,2.578-.464,1.349-.885,2.5-.939,2.556-.082.082-.175.093-.573.082-.442-.016-.475-.027-.491-.137-.011-.066.366-1.24.841-2.6a10.289,10.289,0,0,0,.786-2.572c-.055-.066-.2-.082-.743-.082-.885,0-.928-.033-.694-.6.175-.426.011-.4,2.332-.366C-402.358,85.649-402.145,85.66-402.085,85.742Zm1.939-.027a.212.212,0,0,1,.1.142c0,.049-.3.939-.661,1.977-1.12,3.195-1.076,3.064-.956,3.156a2.688,2.688,0,0,0,1.027.076c.8,0,.923.011.956.087a1.244,1.244,0,0,1-.279.765,6.077,6.077,0,0,1-1.682.076c-1.835,0-1.747.027-1.54-.546.071-.2.535-1.518,1.032-2.943s.934-2.627.967-2.67a.475.475,0,0,1,.18-.12A1.869,1.869,0,0,1-400.146,85.715Zm-18.72.169c.066.1-1.884,5.8-2.053,5.985-.1.109-.164.126-.562.126-.317,0-.464-.022-.508-.076a15.478,15.478,0,0,1,.939-2.987c.6-1.72,1.054-2.96,1.119-3.036.109-.12.153-.131.563-.115C-419.035,85.791-418.91,85.819-418.866,85.884Zm22.854.011a.19.19,0,0,1,.066.12c0,.055-.879,2.616-1.791,5.215-.262.759-.279.77-.874.754l-.475-.016.005-.191c.011-.208,1.895-5.7,2-5.832a.474.474,0,0,1,.18-.12A2.006,2.006,0,0,1-396.012,85.9Zm-25.175.1a1.215,1.215,0,0,1-.328.759,6.174,6.174,0,0,1-1.081.093c-.83.033-.988.055-1.081.142a3.866,3.866,0,0,0-.486,1.316c.027.066.164.082.819.082.977,0,1.032.038.808.557-.142.328-.262.371-1.076.371-.945,0-.923-.011-1.24.852-.344.939-.388.9.9.9.9,0,.972.005,1,.1a1.263,1.263,0,0,1-.3.77,12.622,12.622,0,0,1-1.758.044l-1.655-.016-.016-.137c-.005-.076.426-1.387.961-2.916a14.7,14.7,0,0,1,1.1-2.878c.115-.087.317-.109,1.311-.147.644-.027,1.382-.049,1.638-.044C-421.209,85.851-421.2,85.851-421.187,86Zm27.812.033A8.048,8.048,0,0,1-393,87.626c.317,1.644.344,1.747.453,1.747s.147-.109.7-1.72a7.154,7.154,0,0,1,.606-1.518c.1-.087.2-.1.546-.082a1.161,1.161,0,0,1,.491.087c.076.076.109-.016-1.07,3.369a15.681,15.681,0,0,1-.912,2.386c-.087.076-.218.1-.573.1-.426,0-.464-.011-.513-.126-.038-.093-.475-2.228-.694-3.369-.027-.175-.1-.24-.2-.2s-.164.246-.83,2.184a13.433,13.433,0,0,1-.53,1.382c-.1.12-.142.131-.562.131-.328,0-.47-.022-.519-.082s.011-.295.328-1.212c.218-.628.633-1.835.928-2.692.655-1.917.688-1.993.836-2.07A2.074,2.074,0,0,1-393.375,86.032Zm-33.306.131a.7.7,0,0,1,.36.257c.131.169.147.229.142.628a2.712,2.712,0,0,1-.158.907c-.333,1.021-.655,1.431-1.212,1.556-.115.022-.18.071-.18.126s.076.557.175,1.13a6.668,6.668,0,0,1,.137,1.13c-.027.082-.109.1-.524.1-.453,0-.5-.011-.573-.126a7.209,7.209,0,0,1-.251-1.158c-.2-1.2-.235-1.261-.644-1.212a.712.712,0,0,0-.311.1,10.189,10.189,0,0,0-.442,1.13,7.316,7.316,0,0,1-.475,1.163c-.087.093-.158.1-.573.093-.459-.016-.475-.022-.491-.153-.011-.115,1.469-4.554,1.764-5.281a.487.487,0,0,1,.235-.284A13.972,13.972,0,0,1-426.681,86.163Zm39.581.131a10.25,10.25,0,0,1,1.409.147c.093.071.082.246-.044.513-.153.35-.224.36-1.289.295-.857-.055-.934-.049-1.059.044a2.154,2.154,0,0,0-.442,1.174,2.135,2.135,0,0,0,.83.115c.59.027.776.055.8.115a1.02,1.02,0,0,1-.24.688c-.126.12-.164.12-.836.109a5.158,5.158,0,0,0-.819.016c-.131.044-.208.18-.459.846-.273.726-.295.71.961.71,1.119,0,1.1-.011.95.47s-.1.459-1.922.459c-1.332,0-1.606-.011-1.66-.082-.076-.087-.147.142,1.038-3.277.426-1.234.8-2.272.836-2.315a.507.507,0,0,1,.448-.142C-388.509,86.19-387.837,86.245-387.1,86.294Zm-43.8.131c.1.1.1.109-.011.437a.882.882,0,0,1-.229.41,3.88,3.88,0,0,1-1.016.137,2.8,2.8,0,0,0-.994.147,1.991,1.991,0,0,0-.306.9c.016.12.038.126.7.153a4.571,4.571,0,0,1,.754.071c.087.06.082.24-.022.552-.126.36-.273.415-1.1.415-.6,0-.655.011-.759.12a6.846,6.846,0,0,0-.426,1.07,4.708,4.708,0,0,1-.426,1.054c-.093.087-.191.1-.562.1-.311,0-.464-.022-.508-.076-.06-.071.049-.41,1.535-4.746.191-.562.306-.694.612-.7.224-.005,2.457-.137,2.588-.147A.3.3,0,0,1-430.9,86.425Zm47.641.137c1.2.087,1.464.164,1.693.481a1.827,1.827,0,0,1-.093,1.48c-.235.639-.415.89-.77,1.059-.18.087-.251.153-.229.208s.169.524.344,1.065c.24.759.3,1,.257,1.076s-.158.1-.475.109c-.6.022-.617.005-1.038-1.3l-.344-1.065-.284-.027a1.38,1.38,0,0,0-.382.005,3.676,3.676,0,0,0-.5,1.141,3.626,3.626,0,0,1-.524,1.18,1.5,1.5,0,0,1-1.021-.033,44.343,44.343,0,0,1,1.851-5.341C-384.61,86.458-384.648,86.458-383.256,86.561Z" transform="translate(-1309.44 -952.257)" fill="#020203" fill-rule="evenodd"/>
    <path id="Path_53" data-name="Path 53" d="M-264.257,159.112a.954.954,0,0,0-.366.1,3.363,3.363,0,0,0-.366,1c0,.175.2.224.825.2.694-.027.743-.06.983-.562.169-.344.2-.617.093-.726A3.1,3.1,0,0,0-264.257,159.112Z" transform="translate(-1473.764 -1024.131)" fill="#020203" fill-rule="evenodd"/>
    <path id="Path_54" data-name="Path 54" d="M559.2,164.15a2.09,2.09,0,0,0-.35,1.038c.033.06.153.1.388.126.584.06.732.044.857-.093a2.05,2.05,0,0,0,.393-.874c0-.191-.12-.24-.721-.284C559.337,164.024,559.309,164.03,559.2,164.15Z" transform="translate(-2252.606 -1028.83)" fill="#020203" fill-rule="evenodd"/>
    <path id="Path_55" data-name="Path 55" d="M999.788,63.164A65.049,65.049,0,0,0,981.194,66.9c-.95.371-1.971.8-1.95.825a5.748,5.748,0,0,0,.639-.175,98.6,98.6,0,0,1,12.533-2.993c1.682-.278,2.976-.442,4.888-.612,1.234-.109,6.007-.175,6.007-.082,0,.033-.005.06-.011.06s-.2.076-.426.169-1.283.519-2.348.95l-5.761,2.337c-.628.257-1.731.7-2.441.988l-1.294.524H974.52l-2.408.732c-4.363,1.327-5.139,1.567-5.166,1.589-.033.038-.126.038,2.588-.055,1.321-.044,3.937-.131,5.816-.191s3.746-.12,4.15-.137,1.18-.038,1.72-.055,2-.066,3.249-.109,2.266-.071,2.277-.06-.519.229-1.169.5c-2.184.885-5.313,2.152-8.355,3.391-1.66.672-3.047,1.223-3.08,1.223a2.626,2.626,0,0,1-.77-.885,2.482,2.482,0,0,1-.262-1.223,2.128,2.128,0,0,1,.349-1.272l.191-.278h-2l-.377.317a4.388,4.388,0,0,0-1.147,1.458,3.559,3.559,0,0,0-.393,1.911,2.937,2.937,0,0,0,.994,2.217c2.053,2.064,7.192,3.156,14.258,3.036a65.818,65.818,0,0,0,10.239-.945c7.995-1.316,15.012-3.986,18.6-7.072,2.73-2.348,3.162-4.784,1.185-6.739-1.748-1.726-5.363-2.807-10.277-3.085C1003.594,63.1,1001.088,63.1,999.788,63.164Zm4.707.825c-.016.038-.486,1.125-1.049,2.419s-1.032,2.381-1.049,2.414a23.576,23.576,0,0,1-3.408.071c-1.857,0-3.38-.016-3.38-.044s.967-.579,2.141-1.24,3.118-1.758,4.325-2.446C1004.053,64.043,1004.583,63.786,1004.5,63.989Zm1.8.1a14.9,14.9,0,0,1,6.3,1.857,3.507,3.507,0,0,1,1.076,1.185,2.536,2.536,0,0,1,.126,1.447c-.42,1.786-2.823,3.713-6.679,5.363-.9.388-2.769,1.092-2.8,1.059-.005-.011.082-1.136.2-2.5s.306-3.713.431-5.215c.278-3.424.262-3.3.377-3.3C1005.38,63.978,1005.812,64.027,1006.292,64.087Zm-4.472,6.073c-.852,2.021-2.725,6.242-2.78,6.275-.038.022-.453.115-.917.2a63.684,63.684,0,0,1-14.089,1.207,33.2,33.2,0,0,1-3.7-.262c-.109-.027.317-.289,2.539-1.545,1.464-.825,3.206-1.813,3.866-2.184s2.31-1.311,3.659-2.075l2.463-1.393,1.36-.038c1.278-.033,1.764-.049,3.359-.115.344-.011,1.278-.038,2.075-.06s1.458-.044,1.469-.055a1.9,1.9,0,0,1,.377-.022C1001.754,70.094,1001.841,70.11,1001.82,70.159Z" transform="translate(-2638.415 -933.414)" fill="#020203" fill-rule="evenodd"/>
    <path id="Path_56" data-name="Path 56" d="M1846.465,87.982a.187.187,0,0,0,.137.055c.087,0,.1.049.12.355.011.2.043.355.071.355s.06-.158.071-.355c.016-.311.027-.355.12-.355.06,0,.109-.027.109-.055s-.147-.055-.333-.055C1846.558,87.927,1846.443,87.949,1846.465,87.982Z" transform="translate(-3469.911 -956.872)" fill="#020203" fill-rule="evenodd"/>
    <path id="Path_57" data-name="Path 57" d="M1861.011,88.364c0,.257.022.437.054.437s.055-.147.055-.339c0-.377.055-.371.164.022.1.377.235.355.328-.038.1-.415.158-.426.148-.027-.005.186.011.322.044.328s.06-.18.071-.415c.016-.4.011-.41-.109-.393-.093.011-.142.076-.208.3a1.545,1.545,0,0,1-.115.311c-.016.022-.071-.115-.12-.295-.076-.262-.115-.328-.2-.328S1861.011,87.965,1861.011,88.364Z" transform="translate(-3483.665 -956.872)" fill="#020203" fill-rule="evenodd"/>
  </g>
</svg>
